<svg width="21" height="20" viewBox="0 0 21 20" fill="none" xmlns="http://www.w3.org/2000/svg">
<path d="M13.97 14.95L9.00001 11.87V5H11V10.76L15.03 13.25L13.97 14.95ZM21 10C21 15.51 16.51 20 11 20C5.49001 20 1.00001 15.51 1.00001 10H2.00001C2.00001 14.96 6.04001 19 11 19C15.96 19 20 14.96 20 10C20 5.04 15.96 1 11 1C7.81001 1 4.92001 2.64 3.28001 5.38C3.17001 5.56 3.06001 5.75 2.97001 5.94C2.96001 5.96 2.95001 5.98 2.94001 6H7.00001V7H0.960007V1H1.96001V5.74C2.00001 5.65 2.03001 5.57 2.07001 5.49C2.18001 5.27 2.30001 5.07 2.42001 4.86C4.22001 1.86 7.51001 0 11 0C16.51 0 21 4.49 21 10Z" fill="white"/>
</svg>
